<mxfile host="app.diagrams.net" modified="2024-01-05T16:16:06.525Z" agent="Mozilla/5.0 (X11; Linux x86_64) AppleWebKit/537.36 (KHTML, like Gecko) Chrome/120.0.0.0 Safari/537.36" etag="6SMRPbHPhej7VUFfA2qu" version="22.1.16" type="device">
  <diagram name="Página-1" id="65yaQXBPZkk_jWpdEjBU">
    <mxGraphModel dx="1247" dy="671" grid="1" gridSize="10" guides="1" tooltips="1" connect="1" arrows="1" fold="1" page="1" pageScale="1" pageWidth="2339" pageHeight="3300" math="0" shadow="0">
      <root>
        <mxCell id="0" />
        <mxCell id="1" parent="0" />
        <mxCell id="cfBKrLPV61KFWaBjKZLK-1" value="&lt;b&gt;&lt;font style=&quot;font-size: 14px;&quot;&gt;BaseEducacional.dbo.FNDebitos&lt;/font&gt;&lt;/b&gt;" style="text;html=1;align=center;verticalAlign=middle;resizable=0;points=[];autosize=1;strokeColor=none;fillColor=none;strokeWidth=13;" vertex="1" parent="1">
          <mxGeometry x="173" y="174" width="240" height="30" as="geometry" />
        </mxCell>
        <mxCell id="cfBKrLPV61KFWaBjKZLK-2" value="&lt;font style=&quot;font-size: 14px;&quot;&gt;&lt;b&gt;INSERT&lt;/b&gt;&lt;/font&gt;" style="text;html=1;align=center;verticalAlign=middle;resizable=0;points=[];autosize=1;strokeColor=none;fillColor=none;" vertex="1" parent="1">
          <mxGeometry x="346" y="230.38" width="70" height="30" as="geometry" />
        </mxCell>
        <mxCell id="cfBKrLPV61KFWaBjKZLK-3" value="" style="endArrow=classic;html=1;rounded=0;entryX=0.959;entryY=1.043;entryDx=0;entryDy=0;entryPerimeter=0;" edge="1" parent="1">
          <mxGeometry width="50" height="50" relative="1" as="geometry">
            <mxPoint x="338.5" y="262.41999999999996" as="sourcePoint" />
            <mxPoint x="437.5799999999999" y="261.66999999999996" as="targetPoint" />
          </mxGeometry>
        </mxCell>
        <mxCell id="cfBKrLPV61KFWaBjKZLK-4" value="" style="group;fillColor=default;" vertex="1" connectable="0" parent="1">
          <mxGeometry x="255.5" y="204" width="75" height="104.12000000000006" as="geometry" />
        </mxCell>
        <mxCell id="cfBKrLPV61KFWaBjKZLK-5" value="" style="shape=cylinder3;whiteSpace=wrap;html=1;boundedLbl=1;backgroundOutline=1;size=15;fillColor=default;" vertex="1" parent="cfBKrLPV61KFWaBjKZLK-4">
          <mxGeometry y="42.125" width="75" height="48.125" as="geometry" />
        </mxCell>
        <mxCell id="cfBKrLPV61KFWaBjKZLK-6" value="" style="shape=cylinder3;whiteSpace=wrap;html=1;boundedLbl=1;backgroundOutline=1;size=15;fillColor=default;" vertex="1" parent="cfBKrLPV61KFWaBjKZLK-4">
          <mxGeometry y="24.0625" width="75" height="48.125" as="geometry" />
        </mxCell>
        <mxCell id="cfBKrLPV61KFWaBjKZLK-7" value="" style="shape=cylinder3;whiteSpace=wrap;html=1;boundedLbl=1;backgroundOutline=1;size=15;fillColor=default;" vertex="1" parent="cfBKrLPV61KFWaBjKZLK-4">
          <mxGeometry y="6" width="75" height="48.125" as="geometry" />
        </mxCell>
        <mxCell id="cfBKrLPV61KFWaBjKZLK-8" value="" style="ellipse;whiteSpace=wrap;html=1;fillColor=default;" vertex="1" parent="cfBKrLPV61KFWaBjKZLK-4">
          <mxGeometry x="60.875" y="56.741365740740775" width="5.625" height="4.90162037037037" as="geometry" />
        </mxCell>
        <mxCell id="cfBKrLPV61KFWaBjKZLK-9" value="" style="ellipse;whiteSpace=wrap;html=1;fillColor=default;" vertex="1" parent="cfBKrLPV61KFWaBjKZLK-4">
          <mxGeometry x="60.875" y="37.48094907407408" width="5.625" height="4.90162037037037" as="geometry" />
        </mxCell>
        <mxCell id="cfBKrLPV61KFWaBjKZLK-10" value="" style="ellipse;whiteSpace=wrap;html=1;fillColor=default;" vertex="1" parent="1">
          <mxGeometry x="316.20833333333337" y="278.8038657407408" width="5.625" height="4.90162037037037" as="geometry" />
        </mxCell>
        <mxCell id="cfBKrLPV61KFWaBjKZLK-11" style="edgeStyle=orthogonalEdgeStyle;rounded=0;orthogonalLoop=1;jettySize=auto;html=1;fontFamily=Helvetica;fontSize=16;fontColor=default;startSize=30;" edge="1" parent="1" source="cfBKrLPV61KFWaBjKZLK-12">
          <mxGeometry relative="1" as="geometry">
            <mxPoint x="248" y="257.7850000000001" as="targetPoint" />
          </mxGeometry>
        </mxCell>
        <mxCell id="cfBKrLPV61KFWaBjKZLK-12" value="" style="ellipse;whiteSpace=wrap;html=1;aspect=fixed;strokeColor=#82b366;align=center;verticalAlign=middle;fontFamily=Helvetica;fontSize=16;startSize=30;fillColor=#d5e8d4;" vertex="1" parent="1">
          <mxGeometry x="158" y="236.76999999999998" width="42.03" height="42.03" as="geometry" />
        </mxCell>
        <mxCell id="cfBKrLPV61KFWaBjKZLK-14" value="&lt;font style=&quot;font-size: 10px;&quot;&gt;Débito&lt;/font&gt;" style="text;html=1;align=center;verticalAlign=middle;resizable=0;points=[];autosize=1;strokeColor=none;fillColor=none;" vertex="1" parent="1">
          <mxGeometry x="356.83" y="260.38" width="50" height="30" as="geometry" />
        </mxCell>
        <mxCell id="cfBKrLPV61KFWaBjKZLK-15" value="" style="group" vertex="1" connectable="0" parent="1">
          <mxGeometry x="443" y="183" width="327" height="157" as="geometry" />
        </mxCell>
        <mxCell id="cfBKrLPV61KFWaBjKZLK-17" value="" style="rhombus;whiteSpace=wrap;html=1;strokeColor=default;align=center;verticalAlign=middle;fontFamily=Helvetica;fontSize=16;fontColor=default;startSize=30;fillColor=default;" vertex="1" parent="cfBKrLPV61KFWaBjKZLK-15">
          <mxGeometry width="214.42622950819668" height="157" as="geometry" />
        </mxCell>
        <mxCell id="cfBKrLPV61KFWaBjKZLK-18" value="&lt;font style=&quot;font-size: 16px;&quot;&gt;O aluno possui &lt;br&gt;um pedido de venda &lt;br&gt;do tipo &quot;&lt;b style=&quot;border-color: var(--border-color);&quot;&gt;&lt;font style=&quot;font-size: 16px;&quot;&gt;Outros&lt;/font&gt;&lt;/b&gt;&quot;?&lt;/font&gt;" style="text;html=1;align=center;verticalAlign=middle;resizable=0;points=[];autosize=1;strokeColor=none;fillColor=none;fontSize=16;fontFamily=Helvetica;fontColor=default;" vertex="1" parent="cfBKrLPV61KFWaBjKZLK-15">
          <mxGeometry x="22.209983422361393" y="41.50171164733516" width="170" height="70" as="geometry" />
        </mxCell>
        <mxCell id="cfBKrLPV61KFWaBjKZLK-19" value="Não" style="text;html=1;align=center;verticalAlign=middle;resizable=0;points=[];autosize=1;strokeColor=none;fillColor=none;" vertex="1" parent="cfBKrLPV61KFWaBjKZLK-15">
          <mxGeometry x="214.43" y="77" width="50" height="30" as="geometry" />
        </mxCell>
        <mxCell id="cfBKrLPV61KFWaBjKZLK-29" style="edgeStyle=orthogonalEdgeStyle;rounded=0;orthogonalLoop=1;jettySize=auto;html=1;exitX=0.5;exitY=1;exitDx=0;exitDy=0;" edge="1" parent="1" source="cfBKrLPV61KFWaBjKZLK-25" target="cfBKrLPV61KFWaBjKZLK-28">
          <mxGeometry relative="1" as="geometry" />
        </mxCell>
        <mxCell id="cfBKrLPV61KFWaBjKZLK-25" value="Importa agendamento de débito no pedido de venda" style="whiteSpace=wrap;html=1;strokeColor=default;align=center;verticalAlign=middle;fontFamily=Helvetica;fontSize=16;fontColor=default;startSize=30;fillColor=default;" vertex="1" parent="1">
          <mxGeometry x="440.21" y="380" width="228" height="70" as="geometry" />
        </mxCell>
        <mxCell id="cfBKrLPV61KFWaBjKZLK-26" style="edgeStyle=orthogonalEdgeStyle;rounded=0;orthogonalLoop=1;jettySize=auto;html=1;exitX=0.5;exitY=1;exitDx=0;exitDy=0;entryX=0.486;entryY=-0.025;entryDx=0;entryDy=0;entryPerimeter=0;" edge="1" parent="1" source="cfBKrLPV61KFWaBjKZLK-17" target="cfBKrLPV61KFWaBjKZLK-25">
          <mxGeometry relative="1" as="geometry" />
        </mxCell>
        <mxCell id="cfBKrLPV61KFWaBjKZLK-27" value="Sim" style="text;html=1;align=center;verticalAlign=middle;resizable=0;points=[];autosize=1;strokeColor=none;fillColor=none;" vertex="1" parent="1">
          <mxGeometry x="550" y="340" width="40" height="30" as="geometry" />
        </mxCell>
        <mxCell id="cfBKrLPV61KFWaBjKZLK-28" value="" style="ellipse;whiteSpace=wrap;html=1;aspect=fixed;strokeColor=#ae4132;align=center;verticalAlign=middle;fontFamily=Helvetica;fontSize=16;startSize=30;fillColor=#fad9d5;" vertex="1" parent="1">
          <mxGeometry x="533.19" y="480" width="42.03" height="42.03" as="geometry" />
        </mxCell>
        <mxCell id="cfBKrLPV61KFWaBjKZLK-33" style="edgeStyle=orthogonalEdgeStyle;rounded=0;orthogonalLoop=1;jettySize=auto;html=1;exitX=0.5;exitY=1;exitDx=0;exitDy=0;entryX=1;entryY=0.5;entryDx=0;entryDy=0;" edge="1" parent="1" source="cfBKrLPV61KFWaBjKZLK-31" target="cfBKrLPV61KFWaBjKZLK-25">
          <mxGeometry relative="1" as="geometry" />
        </mxCell>
        <mxCell id="cfBKrLPV61KFWaBjKZLK-31" value="Importa pedido de venda do tipo &quot;&lt;b&gt;Outros&lt;/b&gt;&quot;" style="whiteSpace=wrap;html=1;strokeColor=default;align=center;verticalAlign=middle;fontFamily=Helvetica;fontSize=16;fontColor=default;startSize=30;fillColor=default;" vertex="1" parent="1">
          <mxGeometry x="710" y="226.5" width="180" height="70" as="geometry" />
        </mxCell>
        <mxCell id="cfBKrLPV61KFWaBjKZLK-32" style="edgeStyle=orthogonalEdgeStyle;rounded=0;orthogonalLoop=1;jettySize=auto;html=1;exitX=1;exitY=0.5;exitDx=0;exitDy=0;entryX=0;entryY=0.5;entryDx=0;entryDy=0;" edge="1" parent="1" source="cfBKrLPV61KFWaBjKZLK-17" target="cfBKrLPV61KFWaBjKZLK-31">
          <mxGeometry relative="1" as="geometry" />
        </mxCell>
      </root>
    </mxGraphModel>
  </diagram>
</mxfile>
